<svg xmlns="http://www.w3.org/2000/svg" viewBox="0 0 48 48">
  <path d="M42.435547 7.0234375 A 1.50015 1.50015 0 0 0 41 8.5C41 8.7950452 40.795045 9 40.5 9L7.5 9C7.2049548 9 7 8.7950452 7 8.5L4 8.5L4 39.5L7 39.5C7 39.204955 7.2049548 39 7.5 39L40.5 39C40.795045 39 41 39.204955 41 39.5 A 1.50015 1.50015 0 0 0 44 39.5L44 8.5 A 1.50015 1.50015 0 0 0 42.435547 7.0234375 z M 7 11.898438C7.1699522 11.924397 7.3234563 12 7.5 12L40.5 12C40.676544 12 40.830048 11.924399 41 11.898438L41 36.101562C40.830048 36.075603 40.676544 36 40.5 36L7.5 36C7.3234563 36 7.1699522 36.075601 7 36.101562L7 11.898438 z M 11.476562 14.978516 A 1.50015 1.50015 0 0 0 10 16.5L10 31.5 A 1.50015 1.50015 0 1 0 13 31.5L13 16.5 A 1.50015 1.50015 0 0 0 11.476562 14.978516 z M 16.476562 14.978516 A 1.50015 1.50015 0 0 0 15 16.5L15 31.5 A 1.50015 1.50015 0 1 0 18 31.5L18 16.5 A 1.50015 1.50015 0 0 0 16.476562 14.978516 z M 21.476562 14.978516 A 1.50015 1.50015 0 0 0 20 16.5L20 31.5 A 1.50015 1.50015 0 1 0 23 31.5L23 16.5 A 1.50015 1.50015 0 0 0 21.476562 14.978516 z M 26.476562 14.978516 A 1.50015 1.50015 0 0 0 25 16.5L25 31.5 A 1.50015 1.50015 0 1 0 28 31.5L28 16.5 A 1.50015 1.50015 0 0 0 26.476562 14.978516 z M 31.476562 14.978516 A 1.50015 1.50015 0 0 0 30 16.5L30 31.5 A 1.50015 1.50015 0 1 0 33 31.5L33 16.5 A 1.50015 1.50015 0 0 0 31.476562 14.978516 z M 36.476562 14.978516 A 1.50015 1.50015 0 0 0 35 16.5L35 31.5 A 1.50015 1.50015 0 1 0 38 31.5L38 16.5 A 1.50015 1.50015 0 0 0 36.476562 14.978516 z" fill="#8C8C89" />
</svg>