<svg xmlns="http://www.w3.org/2000/svg" viewBox="0 0 100 100"><path fill="#fefdef" d="M70,83H31c-7.18,0-13-5.82-13-13V31c0-7.18,5.82-13,13-13h39c7.18,0,13,5.82,13,13v39C83,77.18,77.18,83,70,83z"/><rect width="4" height="4" x="46.5" y="34.5" fill="#565fa1"/><rect width="4" height="4" x="50.5" y="38.5" fill="#565fa1"/><rect width="4" height="4" x="26.5" y="46.5" fill="#565fa1"/><rect width="4" height="4" x="30.5" y="50.5" fill="#565fa1"/><rect width="4" height="4" x="34.5" y="46.5" fill="#565fa1"/><rect width="4" height="4" x="38.5" y="50.5" fill="#565fa1"/><rect width="4" height="4" x="42.5" y="46.5" fill="#565fa1"/><rect width="4" height="4" x="46.5" y="42.5" fill="#565fa1"/><rect width="4" height="4" x="50.5" y="50.5" fill="#565fa1"/><rect width="4" height="4" x="46.5" y="54.5" fill="#565fa1"/><rect width="4" height="4" x="50.5" y="62.5" fill="#565fa1"/><rect width="4" height="4" x="54.5" y="58.5" fill="#565fa1"/><rect width="4" height="4" x="46.5" y="58.5" fill="#565fa1"/><rect width="4" height="4" x="46.5" y="66.5" fill="#565fa1"/><rect width="4" height="4" x="54.5" y="66.5" fill="#565fa1"/><rect width="4" height="4" x="58.5" y="66.5" fill="#565fa1"/><rect width="4" height="4" x="62.5" y="66.5" fill="#565fa1"/><rect width="4" height="4" x="62.5" y="58.5" fill="#565fa1"/><rect width="4" height="4" x="58.5" y="54.5" fill="#565fa1"/><rect width="4" height="4" x="66.5" y="62.5" fill="#565fa1"/><rect width="4" height="4" x="50.5" y="70.5" fill="#565fa1"/><rect width="4" height="4" x="70.5" y="58.5" fill="#565fa1"/><rect width="4" height="4" x="70.5" y="50.5" fill="#565fa1"/><rect width="4" height="4" x="54.5" y="46.5" fill="#565fa1"/><rect width="4" height="4" x="54.5" y="42.5" fill="#565fa1"/><rect width="4" height="4" x="58.5" y="46.5" fill="#565fa1"/><rect width="4" height="4" x="62.5" y="50.5" fill="#565fa1"/><rect width="4" height="4" x="66.5" y="46.5" fill="#565fa1"/><rect width="4" height="4" x="66.5" y="70.5" fill="#565fa1"/><rect width="4" height="4" x="70.5" y="66.5" fill="#565fa1"/><rect width="4" height="4" x="50.5" y="30.5" fill="#565fa1"/><rect width="4" height="4" x="46.5" y="26.5" fill="#565fa1"/><path fill="#565fa1" d="M37.5,25h-8c-2.485,0-4.5,2.015-4.5,4.5v8c0,2.485,2.015,4.5,4.5,4.5h8c2.485,0,4.5-2.015,4.5-4.5v-8C42,27.015,39.985,25,37.5,25z M38.5,38.5h-10v-10h10V38.5z"/><rect width="4" height="4" x="31.5" y="31.5" fill="#565fa1"/><path fill="#565fa1" d="M37.5,59.5h-8c-2.209,0-4,1.791-4,4v8c0,2.209,1.791,4,4,4h8c2.209,0,4-1.791,4-4v-8C41.5,61.291,39.709,59.5,37.5,59.5z M38.5,72.5h-10v-10h10V72.5z"/><path fill="#565fa1" d="M71.5,25h-8c-2.485,0-4.5,2.015-4.5,4.5v8c0,2.485,2.015,4.5,4.5,4.5h8c2.485,0,4.5-2.015,4.5-4.5v-8C76,27.015,73.985,25,71.5,25z M72.5,38.5h-10v-10h10V38.5z"/><path fill="#565fa1" d="M35.5,70h-4c-0.276,0-0.5-0.224-0.5-0.5v-4c0-0.276,0.224-0.5,0.5-0.5h4c0.276,0,0.5,0.224,0.5,0.5v4C36,69.776,35.776,70,35.5,70z"/><rect width="4" height="4" x="65.5" y="31.5" fill="#565fa1"/><path fill="#1f212b" d="M35.5,36h-4c-0.276,0-0.5-0.224-0.5-0.5v-4c0-0.276,0.224-0.5,0.5-0.5h4c0.276,0,0.5,0.224,0.5,0.5v4C36,35.776,35.776,36,35.5,36z M32,35h3v-3h-3V35z"/><path fill="#1f212b" d="M37.5,76h-8c-2.481,0-4.5-2.019-4.5-4.5v-8c0-2.481,2.019-4.5,4.5-4.5h8c2.481,0,4.5,2.019,4.5,4.5v8C42,73.981,39.981,76,37.5,76z M29.5,60c-1.93,0-3.5,1.57-3.5,3.5v8c0,1.93,1.57,3.5,3.5,3.5h8c1.93,0,3.5-1.57,3.5-3.5v-8c0-1.93-1.57-3.5-3.5-3.5H29.5z"/><path fill="#1f212b" d="M38.5,73h-10c-0.276,0-0.5-0.224-0.5-0.5v-10c0-0.276,0.224-0.5,0.5-0.5h10c0.276,0,0.5,0.224,0.5,0.5v10C39,72.776,38.776,73,38.5,73z M29,72h9v-9h-9V72z"/><path fill="#1f212b" d="M35.5,70h-4c-0.276,0-0.5-0.224-0.5-0.5v-4c0-0.276,0.224-0.5,0.5-0.5h3c0.276,0,0.5,0.224,0.5,0.5S34.776,66,34.5,66H32v3h3v-1.5c0-0.276,0.224-0.5,0.5-0.5s0.5,0.224,0.5,0.5v2C36,69.776,35.776,70,35.5,70z"/><path fill="#1f212b" d="M71.5,42h-8c-2.481,0-4.5-2.019-4.5-4.5v-8c0-2.481,2.019-4.5,4.5-4.5h8c0.276,0,0.5,0.224,0.5,0.5S71.776,26,71.5,26h-8c-1.93,0-3.5,1.57-3.5,3.5v8c0,1.93,1.57,3.5,3.5,3.5h8c1.93,0,3.5-1.57,3.5-3.5v-8c0-0.276,0.224-0.5,0.5-0.5s0.5,0.224,0.5,0.5v8C76,39.981,73.981,42,71.5,42z"/><path fill="#1f212b" d="M72.5,39h-10c-0.276,0-0.5-0.224-0.5-0.5v-10c0-0.276,0.224-0.5,0.5-0.5h10c0.276,0,0.5,0.224,0.5,0.5v10C73,38.776,72.776,39,72.5,39z M63,38h9v-9h-9V38z"/><path fill="#1f212b" d="M41.5,36c-0.276,0-0.5-0.224-0.5-0.5v-2c0-0.276,0.224-0.5,0.5-0.5s0.5,0.224,0.5,0.5v2C42,35.776,41.776,36,41.5,36z"/><path fill="#1f212b" d="M41.5,32c-0.276,0-0.5-0.224-0.5-0.5v-1c0-0.276,0.224-0.5,0.5-0.5s0.5,0.224,0.5,0.5v1C42,31.776,41.776,32,41.5,32z"/><path fill="#1f212b" d="M70,84H31c-7.72,0-14-6.28-14-14V31c0-7.72,6.28-14,14-14h39c7.72,0,14,6.28,14,14v39C84,77.72,77.72,84,70,84z M31,19c-6.617,0-12,5.383-12,12v39c0,6.617,5.383,12,12,12h39c6.617,0,12-5.383,12-12V31c0-6.617-5.383-12-12-12H31z"/><path fill="#1f212b" d="M50.5,39h-4c-0.276,0-0.5-0.224-0.5-0.5v-4c0-0.276,0.224-0.5,0.5-0.5h4c0.276,0,0.5,0.224,0.5,0.5v4C51,38.776,50.776,39,50.5,39z M47,38h3v-3h-3V38z"/><path fill="#1f212b" d="M54.5,43h-4c-0.276,0-0.5-0.224-0.5-0.5v-4c0-0.276,0.224-0.5,0.5-0.5h4c0.276,0,0.5,0.224,0.5,0.5v4C55,42.776,54.776,43,54.5,43z M51,42h3v-3h-3V42z"/><path fill="#1f212b" d="M30.5,51h-4c-0.276,0-0.5-0.224-0.5-0.5v-4c0-0.276,0.224-0.5,0.5-0.5h4c0.276,0,0.5,0.224,0.5,0.5v4C31,50.776,30.776,51,30.5,51z M27,50h3v-3h-3V50z"/><path fill="#1f212b" d="M34.5,55h-4c-0.276,0-0.5-0.224-0.5-0.5v-4c0-0.276,0.224-0.5,0.5-0.5h4c0.276,0,0.5,0.224,0.5,0.5v4C35,54.776,34.776,55,34.5,55z M31,54h3v-3h-3V54z"/><path fill="#1f212b" d="M38.5,51h-4c-0.276,0-0.5-0.224-0.5-0.5v-4c0-0.276,0.224-0.5,0.5-0.5h4c0.276,0,0.5,0.224,0.5,0.5v4C39,50.776,38.776,51,38.5,51z M35,50h3v-3h-3V50z"/><path fill="#1f212b" d="M42.5,55h-4c-0.276,0-0.5-0.224-0.5-0.5v-4c0-0.276,0.224-0.5,0.5-0.5h4c0.276,0,0.5,0.224,0.5,0.5v4C43,54.776,42.776,55,42.5,55z M39,54h3v-3h-3V54z"/><path fill="#1f212b" d="M46.5,51h-4c-0.276,0-0.5-0.224-0.5-0.5v-4c0-0.276,0.224-0.5,0.5-0.5h4c0.276,0,0.5,0.224,0.5,0.5v4C47,50.776,46.776,51,46.5,51z M43,50h3v-3h-3V50z"/><path fill="#1f212b" d="M50.5,47h-4c-0.276,0-0.5-0.224-0.5-0.5v-4c0-0.276,0.224-0.5,0.5-0.5h4c0.276,0,0.5,0.224,0.5,0.5v4C51,46.776,50.776,47,50.5,47z M47,46h3v-3h-3V46z"/><path fill="#1f212b" d="M54.5,55h-4c-0.276,0-0.5-0.224-0.5-0.5v-4c0-0.276,0.224-0.5,0.5-0.5h4c0.276,0,0.5,0.224,0.5,0.5v4C55,54.776,54.776,55,54.5,55z M51,54h3v-3h-3V54z"/><path fill="#1f212b" d="M50.5,59h-4c-0.276,0-0.5-0.224-0.5-0.5v-4c0-0.276,0.224-0.5,0.5-0.5h4c0.276,0,0.5,0.224,0.5,0.5v4C51,58.776,50.776,59,50.5,59z M47,58h3v-3h-3V58z"/><path fill="#1f212b" d="M54.5,67h-4c-0.276,0-0.5-0.224-0.5-0.5v-4c0-0.276,0.224-0.5,0.5-0.5h4c0.276,0,0.5,0.224,0.5,0.5v4C55,66.776,54.776,67,54.5,67z M51,66h3v-3h-3V66z"/><path fill="#1f212b" d="M58.5,63h-4c-0.276,0-0.5-0.224-0.5-0.5v-4c0-0.276,0.224-0.5,0.5-0.5h4c0.276,0,0.5,0.224,0.5,0.5v4C59,62.776,58.776,63,58.5,63z M55,62h3v-3h-3V62z"/><path fill="#1f212b" d="M50.5,63h-4c-0.276,0-0.5-0.224-0.5-0.5v-4c0-0.276,0.224-0.5,0.5-0.5h4c0.276,0,0.5,0.224,0.5,0.5v4C51,62.776,50.776,63,50.5,63z M47,62h3v-3h-3V62z"/><path fill="#1f212b" d="M50.5,71h-4c-0.276,0-0.5-0.224-0.5-0.5v-4c0-0.276,0.224-0.5,0.5-0.5h4c0.276,0,0.5,0.224,0.5,0.5v4C51,70.776,50.776,71,50.5,71z M47,70h3v-3h-3V70z"/><path fill="#1f212b" d="M58.5,71h-4c-0.276,0-0.5-0.224-0.5-0.5v-4c0-0.276,0.224-0.5,0.5-0.5h4c0.276,0,0.5,0.224,0.5,0.5v4C59,70.776,58.776,71,58.5,71z M55,70h3v-3h-3V70z"/><path fill="#1f212b" d="M62.5,71h-4c-0.276,0-0.5-0.224-0.5-0.5v-4c0-0.276,0.224-0.5,0.5-0.5h4c0.276,0,0.5,0.224,0.5,0.5v4C63,70.776,62.776,71,62.5,71z M59,70h3v-3h-3V70z"/><path fill="#1f212b" d="M66.5,71h-4c-0.276,0-0.5-0.224-0.5-0.5v-4c0-0.276,0.224-0.5,0.5-0.5h4c0.276,0,0.5,0.224,0.5,0.5v4C67,70.776,66.776,71,66.5,71z M63,70h3v-3h-3V70z"/><path fill="#1f212b" d="M66.5,63h-4c-0.276,0-0.5-0.224-0.5-0.5v-4c0-0.276,0.224-0.5,0.5-0.5h4c0.276,0,0.5,0.224,0.5,0.5v4C67,62.776,66.776,63,66.5,63z M63,62h3v-3h-3V62z"/><path fill="#1f212b" d="M62.5,59h-4c-0.276,0-0.5-0.224-0.5-0.5v-4c0-0.276,0.224-0.5,0.5-0.5h4c0.276,0,0.5,0.224,0.5,0.5v4C63,58.776,62.776,59,62.5,59z M59,58h3v-3h-3V58z"/><path fill="#1f212b" d="M70.5,67h-4c-0.276,0-0.5-0.224-0.5-0.5v-4c0-0.276,0.224-0.5,0.5-0.5h4c0.276,0,0.5,0.224,0.5,0.5v4C71,66.776,70.776,67,70.5,67z M67,66h3v-3h-3V66z"/><path fill="#1f212b" d="M54.5,75h-4c-0.276,0-0.5-0.224-0.5-0.5v-4c0-0.276,0.224-0.5,0.5-0.5h4c0.276,0,0.5,0.224,0.5,0.5v4C55,74.776,54.776,75,54.5,75z M51,74h3v-3h-3V74z"/><path fill="#1f212b" d="M74.5,63h-4c-0.276,0-0.5-0.224-0.5-0.5v-4c0-0.276,0.224-0.5,0.5-0.5h4c0.276,0,0.5,0.224,0.5,0.5v4C75,62.776,74.776,63,74.5,63z M71,62h3v-3h-3V62z"/><path fill="#1f212b" d="M74.5,55h-4c-0.276,0-0.5-0.224-0.5-0.5v-4c0-0.276,0.224-0.5,0.5-0.5h4c0.276,0,0.5,0.224,0.5,0.5v4C75,54.776,74.776,55,74.5,55z M71,54h3v-3h-3V54z"/><path fill="#1f212b" d="M58.5,51h-4c-0.276,0-0.5-0.224-0.5-0.5v-4c0-0.276,0.224-0.5,0.5-0.5h4c0.276,0,0.5,0.224,0.5,0.5v4C59,50.776,58.776,51,58.5,51z M55,50h3v-3h-3V50z"/><path fill="#1f212b" d="M58.5,47h-4c-0.276,0-0.5-0.224-0.5-0.5v-4c0-0.276,0.224-0.5,0.5-0.5h4c0.276,0,0.5,0.224,0.5,0.5v4C59,46.776,58.776,47,58.5,47z M55,46h3v-3h-3V46z"/><path fill="#1f212b" d="M62.5,51h-4c-0.276,0-0.5-0.224-0.5-0.5v-4c0-0.276,0.224-0.5,0.5-0.5h4c0.276,0,0.5,0.224,0.5,0.5v4C63,50.776,62.776,51,62.5,51z M59,50h3v-3h-3V50z"/><path fill="#1f212b" d="M66.5,55h-4c-0.276,0-0.5-0.224-0.5-0.5v-4c0-0.276,0.224-0.5,0.5-0.5h4c0.276,0,0.5,0.224,0.5,0.5v4C67,54.776,66.776,55,66.5,55z M63,54h3v-3h-3V54z"/><path fill="#1f212b" d="M70.5,51h-4c-0.276,0-0.5-0.224-0.5-0.5v-4c0-0.276,0.224-0.5,0.5-0.5h4c0.276,0,0.5,0.224,0.5,0.5v4C71,50.776,70.776,51,70.5,51z M67,50h3v-3h-3V50z"/><path fill="#1f212b" d="M70.5,75h-4c-0.276,0-0.5-0.224-0.5-0.5v-4c0-0.276,0.224-0.5,0.5-0.5h4c0.276,0,0.5,0.224,0.5,0.5v4C71,74.776,70.776,75,70.5,75z M67,74h3v-3h-3V74z"/><path fill="#1f212b" d="M74.5,71h-4c-0.276,0-0.5-0.224-0.5-0.5v-4c0-0.276,0.224-0.5,0.5-0.5h4c0.276,0,0.5,0.224,0.5,0.5v4C75,70.776,74.776,71,74.5,71z M71,70h3v-3h-3V70z"/><path fill="#1f212b" d="M54.5,35h-4c-0.276,0-0.5-0.224-0.5-0.5v-4c0-0.276,0.224-0.5,0.5-0.5h4c0.276,0,0.5,0.224,0.5,0.5v4C55,34.776,54.776,35,54.5,35z M51,34h3v-3h-3V34z"/><path fill="#1f212b" d="M50.5,31h-4c-0.276,0-0.5-0.224-0.5-0.5v-4c0-0.276,0.224-0.5,0.5-0.5h4c0.276,0,0.5,0.224,0.5,0.5v4C51,30.776,50.776,31,50.5,31z M47,30h3v-3h-3V30z"/><path fill="#1f212b" d="M37.5,42h-8c-2.481,0-4.5-2.019-4.5-4.5v-8c0-2.481,2.019-4.5,4.5-4.5h5c0.276,0,0.5,0.224,0.5,0.5S34.776,26,34.5,26h-5c-1.93,0-3.5,1.57-3.5,3.5v8c0,1.93,1.57,3.5,3.5,3.5h8c1.93,0,3.5-1.57,3.5-3.5c0-0.276,0.224-0.5,0.5-0.5s0.5,0.224,0.5,0.5C42,39.981,39.981,42,37.5,42z"/><path fill="#1f212b" d="M38.5,39h-10c-0.276,0-0.5-0.224-0.5-0.5v-10c0-0.276,0.224-0.5,0.5-0.5h10c0.276,0,0.5,0.224,0.5,0.5v10C39,38.776,38.776,39,38.5,39z M29,38h9v-9h-9V38z"/><path fill="#1f212b" d="M69.5,36h-4c-0.276,0-0.5-0.224-0.5-0.5v-4c0-0.276,0.224-0.5,0.5-0.5h4c0.276,0,0.5,0.224,0.5,0.5v4C70,35.776,69.776,36,69.5,36z M66,35h3v-3h-3V35z"/></svg>