<svg xmlns="http://www.w3.org/2000/svg" viewBox="0 0 48 48">
  <path d="M13.904297 6C12.570477 6 11.302191 6.5932302 10.447266 7.6191406L7.0429688 11.705078 A 1.50015 1.50015 0 0 0 7.0410156 11.705078C6.3690061 12.513282 6 13.53351 6 14.585938L6 36.5C6 39.519774 8.4802259 42 11.5 42L36.5 42C39.519774 42 42 39.519774 42 36.5L42 14.585938C42 13.533509 41.630675 12.513751 40.957031 11.705078L37.552734 7.6191406C36.697809 6.5932302 35.429523 6 34.095703 6L13.904297 6 z M 13.904297 9L22.5 9L22.5 13L9.8671875 13L12.751953 9.5390625C13.037028 9.1969729 13.458117 9 13.904297 9 z M 25.5 9L34.095703 9C34.541883 9 34.962972 9.1969729 35.248047 9.5390625L38.130859 13L25.5 13L25.5 9 z M 9 16L39 16L39 36.5C39 37.898226 37.898226 39 36.5 39L11.5 39C10.101774 39 9 37.898226 9 36.5L9 16 z M 19.5 20 A 1.50015 1.50015 0 1 0 19.5 23L28.5 23 A 1.50015 1.50015 0 1 0 28.5 20L19.5 20 z" fill="#8C8C89" />
</svg>