<svg xmlns="http://www.w3.org/2000/svg" viewBox="0 0 48 48"><path d="M8.5 5C7.121 5 6 6.122 6 7.5L6 13.5C6 14.878 7.121 16 8.5 16L39.5 16C40.879 16 42 14.878 42 13.5L42 7.5C42 6.122 40.879 5 39.5 5L8.5 5 z M 8 18L8 29.033203C8.225 29.067203 8.4479688 29.122219 8.6679688 29.199219C9.5529687 29.513219 10.262063 30.153906 10.664062 31.003906C10.775063 31.229906 13.720484 37 22.771484 37C25.667484 37 28.02525 36.413609 29.90625 35.599609C28.77925 35.016609 28 33.853 28 32.5C28 30.57 29.57 29 31.5 29L39.5 29C39.671 29 39.835 29.026781 40 29.050781L40 18L8 18 z M 19.5 21L28.5 21C29.328 21 30 21.671 30 22.5C30 23.329 29.328 24 28.5 24L19.5 24C18.672 24 18 23.329 18 22.5C18 21.671 18.672 21 19.5 21 z M 7.5546875 30.980469 A 1.50015 1.50015 0 0 0 7.40625 30.982422 A 1.50015 1.50015 0 0 0 6.1445312 33.142578C6.1445312 33.142578 7.2538605 35.457603 9.8632812 37.648438C12.472702 39.839272 16.680704 42 22.771484 42C30.427705 42 35.376729 38.55178 38 35.988281L38 40.5 A 1.50015 1.50015 0 1 0 41 40.5L41 32.5 A 1.50015 1.50015 0 0 0 39.5 31L39.039062 31 A 1.5009677 1.5009677 0 0 0 38.972656 31L31.5 31 A 1.50015 1.50015 0 1 0 31.5 34L35.859375 34C33.706187 36.132536 29.553237 39 22.771484 39C17.377265 39 13.947798 37.160728 11.792969 35.351562C9.6381393 33.542397 8.8554687 31.857422 8.8554688 31.857422 A 1.50015 1.50015 0 0 0 7.5546875 30.980469 z"/></svg>