<svg xmlns="http://www.w3.org/2000/svg" viewBox="0 0 48 48">
  <path d="M8.5 5C7.1364058 5 6 6.1364058 6 7.5L6 14.5C6 15.692499 6.8698775 16.712342 8 16.949219L8 27.5 A 1.50015 1.50015 0 1 0 11 27.5L11 17L37 17L37 27.5 A 1.50015 1.50015 0 1 0 40 27.5L40 16.949219C41.130122 16.712342 42 15.692499 42 14.5L42 7.5C42 6.1364058 40.863594 5 39.5 5L8.5 5 z M 9 8L39 8L39 14L38.5 14L9.5 14L9 14L9 8 z M 19.5 21 A 1.50015 1.50015 0 1 0 19.5 24L28.5 24 A 1.50015 1.50015 0 1 0 28.5 21L19.5 21 z M 7.5546875 30.980469 A 1.50015 1.50015 0 0 0 7.40625 30.982422 A 1.50015 1.50015 0 0 0 6.1445312 33.142578C6.1445312 33.142578 7.2538605 35.457603 9.8632812 37.648438C12.472702 39.839272 16.680704 42 22.771484 42C30.427705 42 35.376729 38.55178 38 35.988281L38 40.5 A 1.50015 1.50015 0 1 0 41 40.5L41 32.5 A 1.50015 1.50015 0 0 0 39.5 31L39.039062 31 A 1.5009677 1.5009677 0 0 0 38.972656 31L31.5 31 A 1.50015 1.50015 0 1 0 31.5 34L35.859375 34C33.706187 36.132536 29.553237 39 22.771484 39C17.377265 39 13.947798 37.160728 11.792969 35.351562C9.6381393 33.542397 8.8554687 31.857422 8.8554688 31.857422 A 1.50015 1.50015 0 0 0 7.5546875 30.980469 z" fill="#8C8C89" />
</svg>